<?xml version="1.0" encoding="utf-8"?>
<!-- Generator: Adobe Illustrator 19.1.0, SVG Export Plug-In . SVG Version: 6.00 Build 0)  -->
<svg version="1.1" id="Layer_1" xmlns="http://www.w3.org/2000/svg" xmlns:xlink="http://www.w3.org/1999/xlink" x="0px" y="0px"
	 viewBox="0 0 1920 2160" style="enable-background:new 0 0 1920 2160;" xml:space="preserve">
<style type="text/css">
	.st0{clip-path:url(#SVGID_2_);}
	.st1{fill:#424242;}
	.st2{fill:#3F3F3E;}
	.st3{fill:#3D3D3B;}
	.st4{fill:none;}
	.st5{fill:#383838;}
	.st6{fill:url(#SVGID_3_);}
	.st7{fill:url(#SVGID_4_);}
</style>
<g>
	<defs>
		<rect id="SVGID_1_" width="1920" height="2160"/>
	</defs>
	<clipPath id="SVGID_2_">
		<use xlink:href="#SVGID_1_"  style="overflow:visible;"/>
	</clipPath>
	<g class="st0">
		<g>
			<rect class="st1" width="1921" height="2162"/>
			<path class="st2" d="M1629.8,1040.2c22,0,39.9-17.9,39.9-39.9c0-22.1-17.9-39.9-39.9-39.9H1558c-22.1,0-39.9-17.9-39.9-39.9
				c0-22.1,17.9-39.9,39.9-39.9h11.6c22,0,39.9-17.9,39.9-39.9c0-22.1-17.9-39.9-39.9-39.9h-124.1c-22,0-39.9-17.9-39.9-39.9
				s17.9-39.9,39.9-39.9h235.4c22,0,39.9-17.9,39.9-39.9s-17.9-39.9-39.9-39.9h-2c-22,0-39.9-17.9-39.9-39.9
				c0-22.1,17.9-39.9,39.9-39.9c22.1,0,39.9-17.9,39.9-39.9s-17.9-39.9-39.9-39.9H1518c-22,0-39.9-17.9-39.9-39.9
				s17.9-39.9,39.9-39.9h11.6c22,0,39.9-17.9,39.9-39.9s-17.9-39.9-39.9-39.9h-44.2c-22.1,0-39.9-17.9-39.9-39.9
				s17.9-39.9,39.9-39.9h32.6c22.1,0,39.9-17.9,39.9-39.9c0-22.1-17.9-39.9-39.9-39.9h-180.3c-22,0-39.9-17.9-39.9-39.9
				s17.9-39.9,39.9-39.9c22.1,0,39.9-17.9,39.9-39.9c0-22-17.9-39.9-39.9-39.9H560.5c-22,0-39.9,17.9-39.9,39.9s17.9,39.9,39.9,39.9
				H559c22,0,39.9,17.9,39.9,39.9S581,162.4,559,162.4H386.4c-22.1,0-39.9,17.9-39.9,39.9c0,22.1,17.9,39.9,39.9,39.9h142.5
				c22,0,39.9,17.9,39.9,39.9c0,22.1-17.9,39.9-39.9,39.9H351.6c-22,0-39.9,17.9-39.9,39.9s17.9,39.9,39.9,39.9h149.5
				c22,0,39.9,17.9,39.9,39.9s-17.9,39.9-39.9,39.9H395.7c-22,0-39.9,17.9-39.9,39.9c0,0-1.3,35.9,22.7,35.9
				c22,0,39.9,17.9,39.9,39.9s-17.9,43.9-39.9,43.9H222.8c-22.1,0-39.9,17.9-39.9,39.9c0,22,17.9,39.9,39.9,39.9h133
				c22,0,39.9,17.9,39.9,39.9c0,22.1-17.9,39.9-39.9,39.9h-7.3c-22,0-39.9,17.9-39.9,39.9s17.9,39.9,39.9,39.9h119.7
				c22,0,39.9,17.9,39.9,39.9s-17.9,39.9-39.9,39.9H270.6c-22,0-39.9,17.9-39.9,39.9s17.9,39.9,39.9,39.9c0,0,57.4-5.7,57.4,42.8
				s-48.3,38.9-48.3,38.9c-22.1,0-39.9,17.9-39.9,39.9c0,22.1,17.9,39.9,39.9,39.9h197.5c22.1,0,39.9,17.9,39.9,39.9
				c0,22.1-17.9,39.9-39.9,39.9H357.5c-22.1,0-39.9,17.9-39.9,39.9c0,22.1,17.9,39.9,39.9,39.9h7.3c22.1,0,39.9,17.9,39.9,39.9
				c0,22.1-17.9,39.9-39.9,39.9h-133c-22.1,0-39.9,17.9-39.9,39.9s17.9,39.9,39.9,39.9h155.7c22.1,0,39.9,21.9,39.9,43.9
				c0,22.1-17.9,39.9-39.9,39.9c-24.1,0-22.7,35.9-22.7,35.9c0,22.1,17.9,39.9,39.9,39.9h105.4c22.1,0,39.9,17.9,39.9,39.9
				c0,22.1-17.9,39.9-39.9,39.9H360.7c-22.1,0-39.9,17.9-39.9,39.9c0,22.1,17.9,39.9,39.9,39.9h177.2c22.1,0,39.9,17.9,39.9,39.9
				s-17.9,39.9-39.9,39.9H395.4c-22.1,0-39.9,17.9-39.9,39.9s17.9,39.9,39.9,39.9H568c22.1,0,39.9,17.9,39.9,39.9
				c0,22.1-17.9,39.9-39.9,39.9h1.5c-22.1,0-39.9,17.9-39.9,39.9c0,22.1,17.9,39.9,39.9,39.9h777.3c22.1,0,39.9-17.9,39.9-39.9
				c0-22.1-17.9-39.9-39.9-39.9c-22.1,0-39.9-17.9-39.9-39.9c0-22.1,17.9-39.9,39.9-39.9h180.3c22.1,0,39.9-17.9,39.9-39.9
				s-17.9-39.9-39.9-39.9h-32.6c-22.1,0-39.9-17.9-39.9-39.9c0-22.1,17.9-39.9,39.9-39.9h44.2c22.1,0,39.9-17.9,39.9-39.9
				s-17.9-39.9-39.9-39.9h-11.6c-22.1,0-39.9-17.9-39.9-39.9c0-22.1,17.9-39.9,39.9-39.9H1688c22.1,0,39.9-17.9,39.9-39.9
				c0-22.1-17.9-39.9-39.9-39.9c-22.1,0-39.9-17.9-39.9-39.9c0-22.1,17.9-39.9,39.9-39.9h2c22,0,39.9-17.9,39.9-39.9
				s-17.9-39.9-39.9-39.9h-235.4c-22.1,0-39.9-17.9-39.9-39.9c0-22.1,17.9-39.9,39.9-39.9h124.1c22.1,0,39.9-17.9,39.9-39.9
				c0-22.1-17.9-39.9-39.9-39.9h-11.6c-22.1,0-39.9-17.9-39.9-39.9s17.9-39.9,39.9-39.9h71.8c22.1,0,39.9-17.9,39.9-39.9
				c0-22.1-17.9-39.9-39.9-39.9c0,0-57.9,2.5-57.9-39.5C1581,1040.4,1629.8,1040.2,1629.8,1040.2z"/>
			<path class="st3" d="M379.1,684.5c-13.3,0-24.2-10.7-24.2-24s10.8-24,24.2-24h372.4c13.3,0,24.2,10.7,24.2,24s-10.8,24-24.2,24
				H379.1z"/>
			<path class="st3" d="M564,717.5c-9.1,0-16.4-12.2-16.4-25.5s7.3-25.5,16.4-25.5h252.6c9.1,0,16.4,12.2,16.4,25.5
				s-7.3,25.5-16.4,25.5H564z"/>
			<path class="st3" d="M578.2,622.5c-5.4,0-9.8-6-9.8-14s4.4-14,9.8-14h150.6c5.4,0,9.8,6,9.8,14s-4.4,14-9.8,14H578.2z"/>
			<path class="st3" d="M1367.1,1087.5c-13.3,0-24.2-10.7-24.2-24s10.8-24,24.2-24h372.4c13.3,0,24.2,10.7,24.2,24s-10.8,24-24.2,24
				H1367.1z"/>
			<path class="st3" d="M1552,1120.5c-9.1,0-16.4-12.2-16.4-25.5s7.3-25.5,16.4-25.5h252.6c9.1,0,16.4,12.2,16.4,25.5
				s-7.3,25.5-16.4,25.5H1552z"/>
			<path class="st3" d="M1566.2,1025.5c-5.4,0-9.8-6-9.8-14s4.4-14,9.8-14h150.6c5.4,0,9.8,6,9.8,14s-4.4,14-9.8,14H1566.2z"/>
			<path class="st3" d="M625.6,1518.5c-12.5,0-22.7-10-22.7-22.5s10.1-22.5,22.7-22.5h349.1c12.5,0,22.7,10,22.7,22.5
				s-10.2,22.5-22.7,22.5H625.6z"/>
			<path class="st3" d="M798.9,1549.5c-8.5,0-15.4-11.5-15.4-24s6.9-24,15.4-24h236.7c8.5,0,15.4,11.5,15.4,24s-6.9,24-15.4,24
				H798.9z"/>
			<path class="st3" d="M812.2,1460.5c-5.1,0-9.2-5.5-9.2-13s4.1-13,9.2-13h141.2c5.1,0,9.2,5.5,9.2,13s-4.1,13-9.2,13H812.2z"/>
			<rect class="st4" width="1921" height="2162"/>
		</g>
		<g>
			<rect x="396.6" y="1770.1" class="st1" width="81.2" height="19.8"/>
			<path class="st1" d="M267.5,1839.4v194.2h29h140.2h44.1h11.4h63.4v-59.5h-63.4v-179.6H382.9v139.1h-40.6v-94.3h-74.8V1839.4z
				 M477,1823.9h-79.1v-14.2H477V1823.9z M477,1847.7h-79.1v-14.5H477V1847.7z M477,1871.4h-79.1v-14.3H477V1871.4z M477,1894.9
				h-79.1v-14.2H477V1894.9z M477,1918.2h-79.1v-13.9H477V1918.2z M436.6,2012.5v-13.9H477v13.9H436.6L436.6,2012.5z M436.6,1989.3
				v-14.2H477v14.2H436.6L436.6,1989.3z M436.6,1965.7v-14.3H477v14.3H436.6L436.6,1965.7z M408,1949.3h14.4v19.3H408V1949.3z
				 M383.7,1949.3h14.4v19.3h-14.4V1949.3z M398,1933.7v-6.1h79.1v14.5h-40.4v-8.4H398z M359.4,1949.3h14.4v19.3h-14.4V1949.3z
				 M335.1,1949.3h14.4v19.3h-14.4V1949.3z M310.8,1949.3h14.4v19.3h-14.4V1949.3z"/>
		</g>
		<path class="st1" d="M1303.2,2071.8h6.6v65.4h-4.7v8.3h94.8h8.3h7.9H1530h8.3v-8.3h-8.3v-188.4h8.3v-8.3h-8.3h-121.8h-8.3v8.3h8.3
			v105.1h-95.1l-9.9,13.7L1303.2,2071.8L1303.2,2071.8z M1506.4,2129.1v-12.2h12.2v12.2H1506.4L1506.4,2129.1z M1506.4,2109.2V2097
			h12.2v12.2H1506.4L1506.4,2109.2z M1506.4,2089.3v-12.2h12.2v12.2H1506.4L1506.4,2089.3z M1506.4,2069.3v-12.2h12.2v12.2H1506.4
			L1506.4,2069.3z M1506.4,2049.4v-12.2h12.2v12.2H1506.4L1506.4,2049.4z M1506.4,2029.5v-12.2h12.2v12.2H1506.4L1506.4,2029.5z
			 M1506.4,2009.6v-12.2h12.2v12.2H1506.4L1506.4,2009.6z M1506.4,1989.7v-12.2h12.2v12.2H1506.4L1506.4,1989.7z M1506.4,1969.8
			v-12.2h12.2v12.2H1506.4L1506.4,1969.8z M1484.7,2116.9h12.2v12.2h-12.2V2116.9z M1484.7,2097h12.2v12.2h-12.2V2097z
			 M1484.7,2077.1h12.2v12.2h-12.2V2077.1z M1484.7,2057.2h12.2v12.2h-12.2V2057.2z M1484.7,2037.2h12.2v12.2h-12.2V2037.2z
			 M1484.7,2017.3h12.2v12.2h-12.2V2017.3z M1484.7,1997.4h12.2v12.2h-12.2V1997.4z M1484.7,1977.5h12.2v12.2h-12.2V1977.5z
			 M1484.7,1957.6h12.2v12.2h-12.2V1957.6z M1462.9,2116.9h12.2v12.2h-12.2V2116.9z M1462.9,2097h12.2v12.2h-12.2V2097z
			 M1462.9,2077.1h12.2v12.2h-12.2V2077.1z M1462.9,2057.2h12.2v12.2h-12.2V2057.2z M1462.9,2037.2h12.2v12.2h-12.2V2037.2z
			 M1462.9,2017.3h12.2v12.2h-12.2V2017.3z M1462.9,1997.4h12.2v12.2h-12.2V1997.4z M1462.9,1977.5h12.2v12.2h-12.2V1977.5z
			 M1462.9,1957.6h12.2v12.2h-12.2V1957.6z M1441.2,2116.9h12.2v12.2h-12.2V2116.9z M1441.2,2097h12.2v12.2h-12.2V2097z
			 M1441.2,2077.1h12.2v12.2h-12.2V2077.1z M1441.2,2057.2h12.2v12.2h-12.2V2057.2z M1441.2,2037.2h12.2v12.2h-12.2V2037.2z
			 M1441.2,2017.3h12.2v12.2h-12.2V2017.3z M1441.2,1997.4h12.2v12.2h-12.2V1997.4z M1441.2,1977.5h12.2v12.2h-12.2V1977.5z
			 M1441.2,1957.6h12.2v12.2h-12.2V1957.6z M1419.4,2116.9h12.2v12.2h-12.2V2116.9z M1419.4,2097h12.2v12.2h-12.2V2097z
			 M1419.4,2077.1h12.2v12.2h-12.2V2077.1z M1419.4,2057.2h12.2v12.2h-12.2V2057.2z M1419.4,2037.2h12.2v12.2h-12.2V2037.2z
			 M1419.4,2017.3h12.2v12.2h-12.2V2017.3z M1419.4,1997.4h12.2v12.2h-12.2V1997.4z M1419.4,1977.5h12.2v12.2h-12.2V1977.5z
			 M1419.4,1957.6h12.2v12.2h-12.2V1957.6z M1382.9,2105.2h12.8v23.9h-12.8V2105.2z M1382.9,2071.2h12.8v23.9h-12.8V2071.2z
			 M1355,2105.2h12.7v23.9H1355V2105.2z M1355,2071.2h12.7v23.9H1355V2071.2z M1327.2,2105.2h12.7v23.9h-12.7V2105.2z
			 M1327.2,2071.2h12.7v23.9h-12.7V2071.2z"/>
		<g>
			<rect x="1702.8" y="1802" class="st1" width="84.5" height="25.5"/>
			<rect x="1727.9" y="1777.1" class="st1" width="49.6" height="19.8"/>
			<path class="st1" d="M1837.2,1891.1v121.2h-32.3v-178.8h-120.6v231h-81.6v76.5h81.6h14.6h16.9h180.3h37.2v-249.8L1837.2,1891.1
				L1837.2,1891.1z M1703.8,1852.9h81.7v18.3h-81.7V1852.9z M1703.8,1883.2h81.7v18.7h-81.7V1883.2z M1703.8,1913.8h81.7v18.4h-81.7
				V1913.8z M1703.8,1944.3h81.7v18.3h-81.7V1944.3z M1703.8,1974.6h81.7v17.9h-81.7V1974.6z M1715.9,2113.8h-12.1v-17.9h12.1
				V2113.8L1715.9,2113.8z M1715.9,2083.9h-12.1v-18.3h12.1V2083.9L1715.9,2083.9z M1715.9,2053.6h-12.1v-18.4h12.1V2053.6
				L1715.9,2053.6z M1752.7,2057.3h-18.5v-24.8h18.5V2057.3z M1783.9,2057.3h-18.5v-24.8h18.5V2057.3z M1715.9,2012.3v10.8h-12.1
				v-18.6h81.7v7.9L1715.9,2012.3L1715.9,2012.3z M1815.2,2057.3h-18.5v-24.8h18.5V2057.3z M1846.5,2057.3H1828v-24.8h18.5V2057.3z
				 M1877.7,2057.3h-18.5v-24.8h18.5V2057.3z"/>
		</g>
		<g>
			<rect x="1702.8" y="1802" class="st1" width="84.5" height="25.5"/>
			<rect x="1727.9" y="1777.1" class="st1" width="49.6" height="19.8"/>
			<path class="st1" d="M1837.2,1891.1v121.2h-32.3v-178.8h-120.6v231h-81.6v76.5h81.6h14.6h16.9h180.3h37.2v-249.8L1837.2,1891.1
				L1837.2,1891.1z M1703.8,1852.9h81.7v18.3h-81.7V1852.9z M1703.8,1883.2h81.7v18.7h-81.7V1883.2z M1703.8,1913.8h81.7v18.4h-81.7
				V1913.8z M1703.8,1944.3h81.7v18.3h-81.7V1944.3z M1703.8,1974.6h81.7v17.9h-81.7V1974.6z M1715.9,2113.8h-12.1v-17.9h12.1
				V2113.8L1715.9,2113.8z M1715.9,2083.9h-12.1v-18.3h12.1V2083.9L1715.9,2083.9z M1715.9,2053.6h-12.1v-18.4h12.1V2053.6
				L1715.9,2053.6z M1752.7,2057.3h-18.5v-24.8h18.5V2057.3z M1783.9,2057.3h-18.5v-24.8h18.5V2057.3z M1715.9,2012.3v10.8h-12.1
				v-18.6h81.7v7.9L1715.9,2012.3L1715.9,2012.3z M1815.2,2057.3h-18.5v-24.8h18.5V2057.3z M1846.5,2057.3H1828v-24.8h18.5V2057.3z
				 M1877.7,2057.3h-18.5v-24.8h18.5V2057.3z"/>
		</g>
		<path class="st1" d="M714.5,1967h6.6v65.4h-4.7v8.3h94.8h8.3h7.9h113.9h8.3v-8.3h-8.3V1844h8.3v-8.3h-8.3H819.5h-8.3v8.3h8.3
			v105.1h-95.1l-9.9,13.7V1967L714.5,1967z M917.7,2024.3v-12.2h12.2v12.2H917.7L917.7,2024.3z M917.7,2004.3v-12.2h12.2v12.2H917.7
			L917.7,2004.3z M917.7,1984.4v-12.2h12.2v12.2H917.7L917.7,1984.4z M917.7,1964.5v-12.2h12.2v12.2H917.7L917.7,1964.5z
			 M917.7,1944.6v-12.2h12.2v12.2H917.7L917.7,1944.6z M917.7,1924.7v-12.2h12.2v12.2H917.7L917.7,1924.7z M917.7,1904.8v-12.2h12.2
			v12.2H917.7L917.7,1904.8z M917.7,1884.9v-12.2h12.2v12.2H917.7L917.7,1884.9z M917.7,1865v-12.2h12.2v12.2H917.7L917.7,1865z
			 M896,2012.1h12.2v12.2H896V2012.1z M896,1992.2h12.2v12.2H896V1992.2z M896,1972.2h12.2v12.2H896V1972.2z M896,1952.3h12.2v12.2
			H896V1952.3z M896,1932.4h12.2v12.2H896V1932.4z M896,1912.5h12.2v12.2H896V1912.5z M896,1892.6h12.2v12.2H896V1892.6z
			 M896,1872.7h12.2v12.2H896V1872.7z M896,1852.8h12.2v12.2H896V1852.8z M874.3,2012.1h12.2v12.2h-12.2V2012.1z M874.3,1992.2h12.2
			v12.2h-12.2V1992.2z M874.3,1972.2h12.2v12.2h-12.2V1972.2z M874.3,1952.3h12.2v12.2h-12.2V1952.3z M874.3,1932.4h12.2v12.2h-12.2
			V1932.4z M874.3,1912.5h12.2v12.2h-12.2V1912.5z M874.3,1892.6h12.2v12.2h-12.2V1892.6z M874.3,1872.7h12.2v12.2h-12.2V1872.7z
			 M874.3,1852.8h12.2v12.2h-12.2V1852.8z M852.5,2012.1h12.2v12.2h-12.2V2012.1z M852.5,1992.2h12.2v12.2h-12.2V1992.2z
			 M852.5,1972.2h12.2v12.2h-12.2V1972.2z M852.5,1952.3h12.2v12.2h-12.2V1952.3z M852.5,1932.4h12.2v12.2h-12.2V1932.4z
			 M852.5,1912.5h12.2v12.2h-12.2V1912.5z M852.5,1892.6h12.2v12.2h-12.2V1892.6z M852.5,1872.7h12.2v12.2h-12.2V1872.7z
			 M852.5,1852.8h12.2v12.2h-12.2V1852.8z M830.8,2012.1H843v12.2h-12.2V2012.1z M830.8,1992.2H843v12.2h-12.2V1992.2z
			 M830.8,1972.2H843v12.2h-12.2V1972.2z M830.8,1952.3H843v12.2h-12.2V1952.3z M830.8,1932.4H843v12.2h-12.2V1932.4z M830.8,1912.5
			H843v12.2h-12.2V1912.5z M830.8,1892.6H843v12.2h-12.2V1892.6z M830.8,1872.7H843v12.2h-12.2V1872.7z M830.8,1852.8H843v12.2
			h-12.2V1852.8z M794.2,2000.4H807v23.9h-12.8V2000.4z M794.2,1966.4H807v23.9h-12.8V1966.4z M766.4,2000.4h12.7v23.9h-12.7V2000.4
			z M766.4,1966.4h12.7v23.9h-12.7V1966.4z M738.5,2000.4h12.8v23.9h-12.7L738.5,2000.4L738.5,2000.4z M738.5,1966.4h12.8v23.9
			h-12.7L738.5,1966.4L738.5,1966.4z"/>
		<g>
			<g>
				<rect x="1130.1" y="1704.9" class="st1" width="84.5" height="25.5"/>
				<rect x="1155.2" y="1680.1" class="st1" width="49.6" height="19.8"/>
				<path class="st1" d="M1264.5,1794.1v121.2h-32.3v-178.9h-120.6v231H1030v76.5h81.6h14.6h16.9h180.3h37.2v-249.8L1264.5,1794.1
					L1264.5,1794.1z M1131,1755.8h81.7v18.3H1131V1755.8z M1131,1786.1h81.7v18.7H1131V1786.1z M1131,1816.8h81.7v18.4H1131V1816.8z
					 M1131,1847.3h81.7v18.3H1131V1847.3z M1131,1877.5h81.7v17.9H1131V1877.5z M1143.1,2016.7H1131v-17.9h12.1V2016.7
					L1143.1,2016.7z M1143.1,1986.8H1131v-18.3h12.1V1986.8L1143.1,1986.8z M1143.1,1956.6H1131v-18.4h12.1V1956.6L1143.1,1956.6z
					 M1179.9,1960.3h-18.5v-24.8h18.5V1960.3z M1211.2,1960.3h-18.5v-24.8h18.5V1960.3z M1143.1,1915.3v10.8H1131v-18.6h81.7v7.9
					L1143.1,1915.3L1143.1,1915.3z M1242.4,1960.3h-18.5v-24.8h18.5V1960.3z M1273.7,1960.3h-18.5v-24.8h18.5V1960.3z M1305,1960.3
					h-18.5v-24.8h18.5V1960.3z"/>
			</g>
		</g>
		<path class="st1" d="M1974.6,2195.2l-7.3-168.8H1879l-9.1,76.1l-71.9,10.6l-34.6-56.8H1670v-182h-144.5l-4.4,264l-100.1-20.1
			v-250.8l-173-5.4l-11.7,190.5l-158.7-9.6l-9.6-19.2v-181.4l-155.2-6.5l-10.8,67.1v136.4l-119.1-0.7l-28.1,108.9l-307.2,4.4
			l-8-131.2c0,0-58.7,17.1-64.2,18.5c-5.5,1.5-57.4,3.7-57.4,3.7v-196.6l-25.3-15.1l-136.5,5.8l-4.5,341.8L1974.6,2195.2z"/>
		<g>
			<g>
				<rect x="912.6" y="1787.8" class="st5" width="143.4" height="29.4"/>
				<path class="st5" d="M744,1890.7v288.2h43h208h65.5h16.9h94.1v-88.2h-94.2v-266.5h-185v206.3H855v-139.9L744,1890.7L744,1890.7z
					 M1055,1867.6H914.7v-21.1H1055L1055,1867.6L1055,1867.6z M1055,1903H914.7v-21.5H1055L1055,1903L1055,1903z M1055,1938.2H914.7
					v-21.3H1055L1055,1938.2L1055,1938.2z M1055,1973.1H914.7V1952H1055L1055,1973.1L1055,1973.1z M1055,2007.6H914.7V1987H1055
					L1055,2007.6L1055,2007.6z M995,2147.6V2127h60v20.6H995L995,2147.6z M995,2113.1V2092h60v21.1H995L995,2113.1z M995,2078.1
					v-21.3h60v21.3H995L995,2078.1z M952.5,2053.8h21.3v28.6h-21.3V2053.8z M916.5,2053.8h21.3v28.6h-21.3V2053.8z M914.7,2030.5
					v-9.1H1055v21.5h-60v-12.4H914.7z M880.4,2053.8h21.3v28.6h-21.3V2053.8z M844.3,2053.8h21.3v28.6h-21.3V2053.8z M808.3,2053.8
					h21.3v28.6h-21.3V2053.8z"/>
			</g>
		</g>
		<g>
			<g>
				<rect x="163.8" y="1787.8" class="st5" width="143.4" height="29.4"/>
				<path class="st5" d="M364.8,1890.7v139.8h-37.3v-206.4h-185v266.5H48.3v88.2h94.1h16.9h65.5h208h43v-288.2h-111V1890.7z
					 M164.9,1846.5h140.3v21.1H164.9V1846.5z M164.9,1881.5h140.3v21.5H164.9V1881.5z M164.9,1916.9h140.3v21.3H164.9V1916.9z
					 M164.9,1952h140.3v21.1H164.9V1952z M164.9,1987h140.3v20.6H164.9V1987z M224.8,2147.6h-60V2127h60V2147.6L224.8,2147.6z
					 M224.8,2113.1h-60V2092h60V2113.1L224.8,2113.1z M224.8,2078.1h-60v-21.3h60V2078.1L224.8,2078.1z M267.3,2082.4H246v-28.6
					h21.3V2082.4z M303.3,2082.4H282v-28.6h21.3V2082.4z M224.8,2030.5v12.5h-60v-21.5h140.3v9.1L224.8,2030.5L224.8,2030.5z
					 M339.4,2082.4h-21.3v-28.6h21.3V2082.4z M375.5,2082.4h-21.3v-28.6h21.3V2082.4z M411.5,2082.4h-21.3v-28.6h21.3V2082.4z"/>
			</g>
		</g>
		<g>
			<rect x="1531.8" y="1828.8" class="st5" width="128.8" height="26.4"/>
			<rect x="1599" y="1803.1" class="st5" width="51.3" height="20.5"/>
			<path class="st5" d="M1712.3,1921.2v125.6h-33.5v-185.3h-166.2v239.3h-84.5v79.2h84.5h15.1h58.8h186.8h38.6v-258.8H1712.3z
				 M1532.7,1881.6h126v19h-126V1881.6z M1532.7,1913h126v19.3h-126V1913z M1532.7,1944.8h126v19.1h-126V1944.8z M1532.7,1976.3h126
				v18.9h-126V1976.3z M1532.7,2007.7h126v18.5h-126V2007.7z M1586.6,2151.9h-53.9v-18.5h53.9V2151.9L1586.6,2151.9z M1586.6,2120.9
				h-53.9V2102h53.9V2120.9L1586.6,2120.9z M1586.6,2089.6h-53.9v-19.1h53.9V2089.6L1586.6,2089.6z M1624.7,2093.4h-19.1v-25.7h19.1
				V2093.4z M1657.1,2093.4H1638v-25.7h19.1V2093.4z M1586.6,2046.8v11.2h-53.9v-19.3h126v8.1L1586.6,2046.8L1586.6,2046.8z
				 M1689.5,2093.4h-19.2v-25.7h19.1L1689.5,2093.4L1689.5,2093.4z M1721.9,2093.4h-19.1v-25.7h19.1V2093.4z M1754.3,2093.4h-19.1
				v-25.7h19.1V2093.4z"/>
		</g>
		<path class="st5" d="M1778.4,2111.4v59h-8.2v9.9h217.6v-9.9h-8.2v-149.6h6.7l-6-14.3h-114.8l-6,14.3h6.7v70.7l-96.1,13.9v7.2
			L1778.4,2111.4z M1945.3,2128.7h14.9v29.8h-14.9V2128.7z M1945.3,2084h14.9v29.8h-14.9V2084z M1945.3,2039.2h14.9v29.8h-14.9
			V2039.2z M1915.5,2128.7h14.9v29.8h-14.9V2128.7z M1915.5,2084h14.9v29.8h-14.9V2084z M1915.5,2039.2h14.9v29.8h-14.9V2039.2z
			 M1885.7,2128.7h14.9v29.8h-14.9V2128.7z M1885.7,2084h14.9v29.8h-14.9V2084z M1885.7,2039.2h14.9v29.8h-14.9V2039.2z
			 M1794.2,2118.2h66.7v40.2h-66.7V2118.2z"/>
		<path class="st5" d="M1058.7,2060.3h10.8v106.4h-7.7v13.5h154.3h13.5h12.8h185.3h13.5v-13.5h-13.5V1860h13.5v-13.5h-13.5h-198.1
			h-13.5v13.5h13.5v171.1h-154.7l-16.1,22.3v6.9H1058.7z M1389.4,2153.4v-19.8h19.8v19.8H1389.4L1389.4,2153.4z M1389.4,2121v-19.8
			h19.8v19.8H1389.4L1389.4,2121z M1389.4,2088.6v-19.8h19.8v19.8H1389.4L1389.4,2088.6z M1389.4,2056.2v-19.8h19.8v19.8H1389.4
			L1389.4,2056.2z M1389.4,2023.8V2004h19.8v19.8H1389.4L1389.4,2023.8z M1389.4,1991.4v-19.8h19.8v19.8H1389.4L1389.4,1991.4z
			 M1389.4,1959v-19.8h19.8v19.8H1389.4L1389.4,1959z M1389.4,1926.6v-19.8h19.8v19.8H1389.4L1389.4,1926.6z M1389.4,1894.2v-19.8
			h19.8v19.8H1389.4L1389.4,1894.2z M1354.1,2133.6h19.8v19.8h-19.8V2133.6z M1354.1,2101.2h19.8v19.8h-19.8V2101.2z M1354.1,2068.8
			h19.8v19.8h-19.8V2068.8z M1354.1,2036.4h19.8v19.8h-19.8V2036.4z M1354.1,2004h19.8v19.8h-19.8V2004z M1354.1,1971.6h19.8v19.8
			h-19.8V1971.6z M1354.1,1939.2h19.8v19.8h-19.8V1939.2z M1354.1,1906.8h19.8v19.8h-19.8V1906.8z M1354.1,1874.4h19.8v19.8h-19.8
			V1874.4z M1318.7,2133.6h19.8v19.8h-19.8V2133.6z M1318.7,2101.2h19.8v19.8h-19.8V2101.2z M1318.7,2068.8h19.8v19.8h-19.8V2068.8z
			 M1318.7,2036.4h19.8v19.8h-19.8V2036.4z M1318.7,2004h19.8v19.8h-19.8V2004z M1318.7,1971.6h19.8v19.8h-19.8V1971.6z
			 M1318.7,1939.2h19.8v19.8h-19.8V1939.2z M1318.7,1906.8h19.8v19.8h-19.8V1906.8z M1318.7,1874.4h19.8v19.8h-19.8V1874.4z
			 M1283.3,2133.6h19.8v19.8h-19.8V2133.6z M1283.3,2101.2h19.8v19.8h-19.8V2101.2z M1283.3,2068.8h19.8v19.8h-19.8V2068.8z
			 M1283.3,2036.4h19.8v19.8h-19.8V2036.4z M1283.3,2004h19.8v19.8h-19.8V2004z M1283.3,1971.6h19.8v19.8h-19.8V1971.6z
			 M1283.3,1939.2h19.8v19.8h-19.8V1939.2z M1283.3,1906.8h19.8v19.8h-19.8V1906.8z M1283.3,1874.4h19.8v19.8h-19.8V1874.4z
			 M1247.9,2133.6h19.8v19.8h-19.8V2133.6z M1247.9,2101.2h19.8v19.8h-19.8V2101.2z M1247.9,2068.8h19.8v19.8h-19.8V2068.8z
			 M1247.9,2036.4h19.8v19.8h-19.8V2036.4z M1247.9,2004h19.8v19.8h-19.8V2004z M1247.9,1971.6h19.8v19.8h-19.8V1971.6z
			 M1247.9,1939.2h19.8v19.8h-19.8V1939.2z M1247.9,1906.8h19.8v19.8h-19.8V1906.8z M1247.9,1874.4h19.8v19.8h-19.8V1874.4z
			 M1188.5,2114.6h20.8v38.9h-20.8V2114.6z M1188.5,2059.2h20.8v38.9h-20.8V2059.2z M1143.1,2114.6h20.7v38.9h-20.7V2114.6z
			 M1143.1,2059.2h20.7v38.9h-20.7V2059.2z M1097.8,2114.6h20.7v38.9h-20.7V2114.6z M1097.8,2059.2h20.7v38.9h-20.7V2059.2z"/>
		
			<linearGradient id="SVGID_3_" gradientUnits="userSpaceOnUse" x1="-230.5083" y1="216.15" x2="753.4917" y2="216.15" gradientTransform="matrix(1 0 0 -1 230.8083 2162)">
			<stop  offset="6.240035e-02" style="stop-color:#424242"/>
			<stop  offset="0.1991" style="stop-color:#424242;stop-opacity:0.8542"/>
			<stop  offset="1" style="stop-color:#424242;stop-opacity:0"/>
		</linearGradient>
		<rect x="0.3" y="1730.2" class="st6" width="984" height="431.3"/>
		
			<linearGradient id="SVGID_4_" gradientUnits="userSpaceOnUse" x1="704.8917" y1="209.4501" x2="1688.8916" y2="209.4501" gradientTransform="matrix(-1 0 0 -1 2625.1917 2162)">
			<stop  offset="0.264" style="stop-color:#424242"/>
			<stop  offset="0.3495" style="stop-color:#424242;stop-opacity:0.8838"/>
			<stop  offset="1" style="stop-color:#424242;stop-opacity:0"/>
		</linearGradient>
		<rect x="936.3" y="1743.7" class="st7" width="984" height="417.7"/>
	</g>
</g>
</svg>
