<?xml version="1.0" encoding="utf-8"?>
<!-- Generator: Adobe Illustrator 19.1.0, SVG Export Plug-In . SVG Version: 6.00 Build 0)  -->
<svg version="1.1" id="Layer_1" xmlns="http://www.w3.org/2000/svg" xmlns:xlink="http://www.w3.org/1999/xlink" x="0px" y="0px"
	 viewBox="0 0 1920 1080" style="enable-background:new 0 0 1920 1080;" xml:space="preserve">
<style type="text/css">
	.st0{fill:#00B8D4;}
	.st1{fill:url(#SVGID_1_);}
	.st2{fill:url(#SVGID_2_);}
	.st3{fill:url(#SVGID_3_);}
	.st4{fill:url(#SVGID_4_);}
	.st5{fill:url(#SVGID_5_);}
	.st6{fill:url(#SVGID_6_);}
	.st7{fill:url(#SVGID_7_);}
	.st8{fill:url(#SVGID_8_);}
	.st9{fill:url(#SVGID_9_);}
	.st10{fill:none;stroke:#4DD0E1;stroke-width:2;stroke-linecap:square;stroke-miterlimit:10;}
	.st11{opacity:0.58;}
	.st12{fill:#00AAC4;}
	.st13{fill:#4DD0E1;}
	.st14{opacity:0.58;fill:#00AAC4;stroke:#4DD0E1;stroke-width:3;stroke-miterlimit:10;}
	.st15{opacity:0.8;}
	.st16{opacity:0.58;fill:#B2EBF2;}
	.st17{opacity:0.58;fill:#E0F7FA;}
</style>
<g>
	<rect x="-5.5" y="-6.5" class="st0" width="1931" height="1096.5"/>
	<g>
		<linearGradient id="SVGID_1_" gradientUnits="userSpaceOnUse" x1="111.7299" y1="253.4244" x2="1882.2701" y2="253.4244">
			<stop  offset="0" style="stop-color:#00B8D4"/>
			<stop  offset="2.331106e-02" style="stop-color:#03B9D5"/>
			<stop  offset="0.196" style="stop-color:#17C0D8"/>
			<stop  offset="0.3718" style="stop-color:#22C5D9"/>
			<stop  offset="0.5541" style="stop-color:#26C6DA"/>
			<stop  offset="0.7098" style="stop-color:#23C5D9"/>
			<stop  offset="0.8411" style="stop-color:#18C1D8"/>
			<stop  offset="0.9631" style="stop-color:#07BBD5"/>
			<stop  offset="1" style="stop-color:#00B8D4"/>
		</linearGradient>
		<rect x="111.7" y="230.4" class="st1" width="1770.5" height="46.1"/>
		<linearGradient id="SVGID_2_" gradientUnits="userSpaceOnUse" x1="111.7299" y1="447.9632" x2="1882.2701" y2="447.9632">
			<stop  offset="0" style="stop-color:#00B8D4"/>
			<stop  offset="2.331106e-02" style="stop-color:#03B9D5"/>
			<stop  offset="0.196" style="stop-color:#17C0D8"/>
			<stop  offset="0.3718" style="stop-color:#22C5D9"/>
			<stop  offset="0.5541" style="stop-color:#26C6DA"/>
			<stop  offset="0.7098" style="stop-color:#23C5D9"/>
			<stop  offset="0.8411" style="stop-color:#18C1D8"/>
			<stop  offset="0.9631" style="stop-color:#07BBD5"/>
			<stop  offset="1" style="stop-color:#00B8D4"/>
		</linearGradient>
		<rect x="111.7" y="424.9" class="st2" width="1770.5" height="46.1"/>
		<linearGradient id="SVGID_3_" gradientUnits="userSpaceOnUse" x1="111.7299" y1="642.502" x2="1882.2701" y2="642.502">
			<stop  offset="0" style="stop-color:#00B8D4"/>
			<stop  offset="2.331106e-02" style="stop-color:#03B9D5"/>
			<stop  offset="0.196" style="stop-color:#17C0D8"/>
			<stop  offset="0.3718" style="stop-color:#22C5D9"/>
			<stop  offset="0.5541" style="stop-color:#26C6DA"/>
			<stop  offset="0.7098" style="stop-color:#23C5D9"/>
			<stop  offset="0.8411" style="stop-color:#18C1D8"/>
			<stop  offset="0.9631" style="stop-color:#07BBD5"/>
			<stop  offset="1" style="stop-color:#00B8D4"/>
		</linearGradient>
		<rect x="111.7" y="619.4" class="st3" width="1770.5" height="46.1"/>
		<linearGradient id="SVGID_4_" gradientUnits="userSpaceOnUse" x1="111.7299" y1="837.0408" x2="1882.2701" y2="837.0408">
			<stop  offset="0" style="stop-color:#00B8D4"/>
			<stop  offset="2.331106e-02" style="stop-color:#03B9D5"/>
			<stop  offset="0.196" style="stop-color:#17C0D8"/>
			<stop  offset="0.3718" style="stop-color:#22C5D9"/>
			<stop  offset="0.5541" style="stop-color:#26C6DA"/>
			<stop  offset="0.7098" style="stop-color:#23C5D9"/>
			<stop  offset="0.8411" style="stop-color:#18C1D8"/>
			<stop  offset="0.9631" style="stop-color:#07BBD5"/>
			<stop  offset="1" style="stop-color:#00B8D4"/>
		</linearGradient>
		<rect x="111.7" y="814" class="st4" width="1770.5" height="46.1"/>
		<linearGradient id="SVGID_5_" gradientUnits="userSpaceOnUse" x1="307.4809" y1="126.4446" x2="307.4809" y2="1055.6813">
			<stop  offset="0" style="stop-color:#00B8D4"/>
			<stop  offset="0.2039" style="stop-color:#0ABCD6"/>
			<stop  offset="0.5541" style="stop-color:#26C6DA"/>
			<stop  offset="0.6887" style="stop-color:#15C0D7"/>
			<stop  offset="0.862" style="stop-color:#05BAD5"/>
			<stop  offset="1" style="stop-color:#00B8D4"/>
		</linearGradient>
		<rect x="284.4" y="47.3" class="st5" width="46.1" height="995.5"/>
		<linearGradient id="SVGID_6_" gradientUnits="userSpaceOnUse" x1="1318.4495" y1="126.4446" x2="1318.4495" y2="1055.6813">
			<stop  offset="0" style="stop-color:#00B8D4"/>
			<stop  offset="6.834029e-02" style="stop-color:#11BED7"/>
			<stop  offset="0.1547" style="stop-color:#1DC3D9"/>
			<stop  offset="0.2719" style="stop-color:#24C5DA"/>
			<stop  offset="0.5541" style="stop-color:#26C6DA"/>
			<stop  offset="0.7256" style="stop-color:#23C5DA"/>
			<stop  offset="0.8455" style="stop-color:#1AC2D8"/>
			<stop  offset="0.9494" style="stop-color:#0BBCD6"/>
			<stop  offset="1" style="stop-color:#00B8D4"/>
		</linearGradient>
		<rect x="1295.4" y="47.3" class="st6" width="46.1" height="995.5"/>
		<linearGradient id="SVGID_7_" gradientUnits="userSpaceOnUse" x1="981.4599" y1="126.4446" x2="981.4599" y2="1055.6813">
			<stop  offset="0" style="stop-color:#00B8D4"/>
			<stop  offset="6.792895e-02" style="stop-color:#11BED7"/>
			<stop  offset="0.153" style="stop-color:#1DC3D9"/>
			<stop  offset="0.2692" style="stop-color:#24C5DA"/>
			<stop  offset="0.5541" style="stop-color:#26C6DA"/>
			<stop  offset="0.7501" style="stop-color:#24C5DA"/>
			<stop  offset="0.8576" style="stop-color:#1CC2D8"/>
			<stop  offset="0.9434" style="stop-color:#0EBDD6"/>
			<stop  offset="1" style="stop-color:#00B8D4"/>
		</linearGradient>
		<rect x="958.4" y="47.3" class="st7" width="46.1" height="995.5"/>
		<linearGradient id="SVGID_8_" gradientUnits="userSpaceOnUse" x1="644.4704" y1="126.4446" x2="644.4704" y2="1055.6813">
			<stop  offset="0" style="stop-color:#00B8D4"/>
			<stop  offset="7.025219e-02" style="stop-color:#0EBDD6"/>
			<stop  offset="0.178" style="stop-color:#1CC2D8"/>
			<stop  offset="0.3124" style="stop-color:#24C5DA"/>
			<stop  offset="0.5541" style="stop-color:#26C6DA"/>
			<stop  offset="0.6929" style="stop-color:#21C4D9"/>
			<stop  offset="0.8556" style="stop-color:#13BFD7"/>
			<stop  offset="1" style="stop-color:#00B8D4"/>
		</linearGradient>
		<rect x="621.4" y="47.3" class="st8" width="46.1" height="995.5"/>
		<linearGradient id="SVGID_9_" gradientUnits="userSpaceOnUse" x1="1655.439" y1="126.4446" x2="1655.439" y2="1055.6813">
			<stop  offset="0" style="stop-color:#00B8D4"/>
			<stop  offset="0.5541" style="stop-color:#26C6DA"/>
			<stop  offset="1" style="stop-color:#00B8D4"/>
		</linearGradient>
		<rect x="1632.4" y="47.3" class="st9" width="46.1" height="995.5"/>
		<g>
			<g>
				<line class="st10" x1="647" y1="221" x2="647" y2="210"/>
				<line class="st10" x1="636" y1="221" x2="636" y2="210"/>
				<line class="st10" x1="631" y1="221" x2="631" y2="210"/>
				<line class="st10" x1="626" y1="221" x2="626" y2="210"/>
				<line class="st10" x1="662" y1="221" x2="662" y2="210"/>
				<line class="st10" x1="657" y1="221" x2="657" y2="210"/>
				<line class="st10" x1="652" y1="221" x2="652" y2="210"/>
				<line class="st10" x1="641" y1="221" x2="641" y2="210"/>
			</g>
			<g>
				<line class="st10" x1="647" y1="292" x2="647" y2="281"/>
				<line class="st10" x1="636" y1="292" x2="636" y2="281"/>
				<line class="st10" x1="631" y1="292" x2="631" y2="281"/>
				<line class="st10" x1="626" y1="292" x2="626" y2="281"/>
				<line class="st10" x1="662" y1="292" x2="662" y2="281"/>
				<line class="st10" x1="657" y1="292" x2="657" y2="281"/>
				<line class="st10" x1="652" y1="292" x2="652" y2="281"/>
				<line class="st10" x1="641" y1="292" x2="641" y2="281"/>
			</g>
			<g>
				<line class="st10" x1="674" y1="256" x2="685" y2="256"/>
				<line class="st10" x1="674" y1="245" x2="685" y2="245"/>
				<line class="st10" x1="674" y1="240" x2="685" y2="240"/>
				<line class="st10" x1="674" y1="235" x2="685" y2="235"/>
				<line class="st10" x1="674" y1="271" x2="685" y2="271"/>
				<line class="st10" x1="674" y1="266" x2="685" y2="266"/>
				<line class="st10" x1="674" y1="261" x2="685" y2="261"/>
				<line class="st10" x1="674" y1="250" x2="685" y2="250"/>
			</g>
			<g>
				<line class="st10" x1="603" y1="256" x2="614" y2="256"/>
				<line class="st10" x1="603" y1="245" x2="614" y2="245"/>
				<line class="st10" x1="603" y1="240" x2="614" y2="240"/>
				<line class="st10" x1="603" y1="235" x2="614" y2="235"/>
				<line class="st10" x1="603" y1="271" x2="614" y2="271"/>
				<line class="st10" x1="603" y1="266" x2="614" y2="266"/>
				<line class="st10" x1="603" y1="261" x2="614" y2="261"/>
				<line class="st10" x1="603" y1="250" x2="614" y2="250"/>
			</g>
		</g>
		<g>
			<g>
				<line class="st10" x1="984" y1="221" x2="984" y2="210"/>
				<line class="st10" x1="973" y1="221" x2="973" y2="210"/>
				<line class="st10" x1="968" y1="221" x2="968" y2="210"/>
				<line class="st10" x1="963" y1="221" x2="963" y2="210"/>
				<line class="st10" x1="999" y1="221" x2="999" y2="210"/>
				<line class="st10" x1="994" y1="221" x2="994" y2="210"/>
				<line class="st10" x1="989" y1="221" x2="989" y2="210"/>
				<line class="st10" x1="978" y1="221" x2="978" y2="210"/>
			</g>
			<g>
				<line class="st10" x1="984" y1="292" x2="984" y2="281"/>
				<line class="st10" x1="973" y1="292" x2="973" y2="281"/>
				<line class="st10" x1="968" y1="292" x2="968" y2="281"/>
				<line class="st10" x1="963" y1="292" x2="963" y2="281"/>
				<line class="st10" x1="999" y1="292" x2="999" y2="281"/>
				<line class="st10" x1="994" y1="292" x2="994" y2="281"/>
				<line class="st10" x1="989" y1="292" x2="989" y2="281"/>
				<line class="st10" x1="978" y1="292" x2="978" y2="281"/>
			</g>
			<g>
				<line class="st10" x1="1011" y1="256" x2="1022" y2="256"/>
				<line class="st10" x1="1011" y1="245" x2="1022" y2="245"/>
				<line class="st10" x1="1011" y1="240" x2="1022" y2="240"/>
				<line class="st10" x1="1011" y1="235" x2="1022" y2="235"/>
				<line class="st10" x1="1011" y1="271" x2="1022" y2="271"/>
				<line class="st10" x1="1011" y1="266" x2="1022" y2="266"/>
				<line class="st10" x1="1011" y1="261" x2="1022" y2="261"/>
				<line class="st10" x1="1011" y1="250" x2="1022" y2="250"/>
			</g>
			<g>
				<line class="st10" x1="940" y1="256" x2="951" y2="256"/>
				<line class="st10" x1="940" y1="245" x2="951" y2="245"/>
				<line class="st10" x1="940" y1="240" x2="951" y2="240"/>
				<line class="st10" x1="940" y1="235" x2="951" y2="235"/>
				<line class="st10" x1="940" y1="271" x2="951" y2="271"/>
				<line class="st10" x1="940" y1="266" x2="951" y2="266"/>
				<line class="st10" x1="940" y1="261" x2="951" y2="261"/>
				<line class="st10" x1="940" y1="250" x2="951" y2="250"/>
			</g>
		</g>
		<g>
			<g>
				<line class="st10" x1="1321" y1="221" x2="1321" y2="210"/>
				<line class="st10" x1="1310" y1="221" x2="1310" y2="210"/>
				<line class="st10" x1="1305" y1="221" x2="1305" y2="210"/>
				<line class="st10" x1="1300" y1="221" x2="1300" y2="210"/>
				<line class="st10" x1="1336" y1="221" x2="1336" y2="210"/>
				<line class="st10" x1="1331" y1="221" x2="1331" y2="210"/>
				<line class="st10" x1="1326" y1="221" x2="1326" y2="210"/>
				<line class="st10" x1="1315" y1="221" x2="1315" y2="210"/>
			</g>
			<g>
				<line class="st10" x1="1321" y1="292" x2="1321" y2="281"/>
				<line class="st10" x1="1310" y1="292" x2="1310" y2="281"/>
				<line class="st10" x1="1305" y1="292" x2="1305" y2="281"/>
				<line class="st10" x1="1300" y1="292" x2="1300" y2="281"/>
				<line class="st10" x1="1336" y1="292" x2="1336" y2="281"/>
				<line class="st10" x1="1331" y1="292" x2="1331" y2="281"/>
				<line class="st10" x1="1326" y1="292" x2="1326" y2="281"/>
				<line class="st10" x1="1315" y1="292" x2="1315" y2="281"/>
			</g>
			<g>
				<line class="st10" x1="1348" y1="256" x2="1359" y2="256"/>
				<line class="st10" x1="1348" y1="245" x2="1359" y2="245"/>
				<line class="st10" x1="1348" y1="240" x2="1359" y2="240"/>
				<line class="st10" x1="1348" y1="235" x2="1359" y2="235"/>
				<line class="st10" x1="1348" y1="271" x2="1359" y2="271"/>
				<line class="st10" x1="1348" y1="266" x2="1359" y2="266"/>
				<line class="st10" x1="1348" y1="261" x2="1359" y2="261"/>
				<line class="st10" x1="1348" y1="250" x2="1359" y2="250"/>
			</g>
			<g>
				<line class="st10" x1="1277" y1="256" x2="1288" y2="256"/>
				<line class="st10" x1="1277" y1="245" x2="1288" y2="245"/>
				<line class="st10" x1="1277" y1="240" x2="1288" y2="240"/>
				<line class="st10" x1="1277" y1="235" x2="1288" y2="235"/>
				<line class="st10" x1="1277" y1="271" x2="1288" y2="271"/>
				<line class="st10" x1="1277" y1="266" x2="1288" y2="266"/>
				<line class="st10" x1="1277" y1="261" x2="1288" y2="261"/>
				<line class="st10" x1="1277" y1="250" x2="1288" y2="250"/>
			</g>
		</g>
		<g>
			<g>
				<line class="st10" x1="647" y1="418" x2="647" y2="407"/>
				<line class="st10" x1="636" y1="418" x2="636" y2="407"/>
				<line class="st10" x1="631" y1="418" x2="631" y2="407"/>
				<line class="st10" x1="626" y1="418" x2="626" y2="407"/>
				<line class="st10" x1="662" y1="418" x2="662" y2="407"/>
				<line class="st10" x1="657" y1="418" x2="657" y2="407"/>
				<line class="st10" x1="652" y1="418" x2="652" y2="407"/>
				<line class="st10" x1="641" y1="418" x2="641" y2="407"/>
			</g>
			<g>
				<line class="st10" x1="647" y1="489" x2="647" y2="478"/>
				<line class="st10" x1="636" y1="489" x2="636" y2="478"/>
				<line class="st10" x1="631" y1="489" x2="631" y2="478"/>
				<line class="st10" x1="626" y1="489" x2="626" y2="478"/>
				<line class="st10" x1="662" y1="489" x2="662" y2="478"/>
				<line class="st10" x1="657" y1="489" x2="657" y2="478"/>
				<line class="st10" x1="652" y1="489" x2="652" y2="478"/>
				<line class="st10" x1="641" y1="489" x2="641" y2="478"/>
			</g>
			<g>
				<line class="st10" x1="674" y1="453" x2="685" y2="453"/>
				<line class="st10" x1="674" y1="442" x2="685" y2="442"/>
				<line class="st10" x1="674" y1="437" x2="685" y2="437"/>
				<line class="st10" x1="674" y1="432" x2="685" y2="432"/>
				<line class="st10" x1="674" y1="468" x2="685" y2="468"/>
				<line class="st10" x1="674" y1="463" x2="685" y2="463"/>
				<line class="st10" x1="674" y1="458" x2="685" y2="458"/>
				<line class="st10" x1="674" y1="447" x2="685" y2="447"/>
			</g>
			<g>
				<line class="st10" x1="603" y1="453" x2="614" y2="453"/>
				<line class="st10" x1="603" y1="442" x2="614" y2="442"/>
				<line class="st10" x1="603" y1="437" x2="614" y2="437"/>
				<line class="st10" x1="603" y1="432" x2="614" y2="432"/>
				<line class="st10" x1="603" y1="468" x2="614" y2="468"/>
				<line class="st10" x1="603" y1="463" x2="614" y2="463"/>
				<line class="st10" x1="603" y1="458" x2="614" y2="458"/>
				<line class="st10" x1="603" y1="447" x2="614" y2="447"/>
			</g>
		</g>
		<g>
			<g>
				<line class="st10" x1="1658" y1="612" x2="1658" y2="601"/>
				<line class="st10" x1="1647" y1="612" x2="1647" y2="601"/>
				<line class="st10" x1="1642" y1="612" x2="1642" y2="601"/>
				<line class="st10" x1="1637" y1="612" x2="1637" y2="601"/>
				<line class="st10" x1="1673" y1="612" x2="1673" y2="601"/>
				<line class="st10" x1="1668" y1="612" x2="1668" y2="601"/>
				<line class="st10" x1="1663" y1="612" x2="1663" y2="601"/>
				<line class="st10" x1="1652" y1="612" x2="1652" y2="601"/>
			</g>
			<g>
				<line class="st10" x1="1658" y1="683" x2="1658" y2="672"/>
				<line class="st10" x1="1647" y1="683" x2="1647" y2="672"/>
				<line class="st10" x1="1642" y1="683" x2="1642" y2="672"/>
				<line class="st10" x1="1637" y1="683" x2="1637" y2="672"/>
				<line class="st10" x1="1673" y1="683" x2="1673" y2="672"/>
				<line class="st10" x1="1668" y1="683" x2="1668" y2="672"/>
				<line class="st10" x1="1663" y1="683" x2="1663" y2="672"/>
				<line class="st10" x1="1652" y1="683" x2="1652" y2="672"/>
			</g>
			<g>
				<line class="st10" x1="1685" y1="647" x2="1696" y2="647"/>
				<line class="st10" x1="1685" y1="636" x2="1696" y2="636"/>
				<line class="st10" x1="1685" y1="631" x2="1696" y2="631"/>
				<line class="st10" x1="1685" y1="626" x2="1696" y2="626"/>
				<line class="st10" x1="1685" y1="662" x2="1696" y2="662"/>
				<line class="st10" x1="1685" y1="657" x2="1696" y2="657"/>
				<line class="st10" x1="1685" y1="652" x2="1696" y2="652"/>
				<line class="st10" x1="1685" y1="641" x2="1696" y2="641"/>
			</g>
			<g>
				<line class="st10" x1="1614" y1="647" x2="1625" y2="647"/>
				<line class="st10" x1="1614" y1="636" x2="1625" y2="636"/>
				<line class="st10" x1="1614" y1="631" x2="1625" y2="631"/>
				<line class="st10" x1="1614" y1="626" x2="1625" y2="626"/>
				<line class="st10" x1="1614" y1="662" x2="1625" y2="662"/>
				<line class="st10" x1="1614" y1="657" x2="1625" y2="657"/>
				<line class="st10" x1="1614" y1="652" x2="1625" y2="652"/>
				<line class="st10" x1="1614" y1="641" x2="1625" y2="641"/>
			</g>
		</g>
		<g>
			<g>
				<line class="st10" x1="984" y1="609" x2="984" y2="598"/>
				<line class="st10" x1="973" y1="609" x2="973" y2="598"/>
				<line class="st10" x1="968" y1="609" x2="968" y2="598"/>
				<line class="st10" x1="963" y1="609" x2="963" y2="598"/>
				<line class="st10" x1="999" y1="609" x2="999" y2="598"/>
				<line class="st10" x1="994" y1="609" x2="994" y2="598"/>
				<line class="st10" x1="989" y1="609" x2="989" y2="598"/>
				<line class="st10" x1="978" y1="609" x2="978" y2="598"/>
			</g>
			<g>
				<line class="st10" x1="984" y1="680" x2="984" y2="669"/>
				<line class="st10" x1="973" y1="680" x2="973" y2="669"/>
				<line class="st10" x1="968" y1="680" x2="968" y2="669"/>
				<line class="st10" x1="963" y1="680" x2="963" y2="669"/>
				<line class="st10" x1="999" y1="680" x2="999" y2="669"/>
				<line class="st10" x1="994" y1="680" x2="994" y2="669"/>
				<line class="st10" x1="989" y1="680" x2="989" y2="669"/>
				<line class="st10" x1="978" y1="680" x2="978" y2="669"/>
			</g>
			<g>
				<line class="st10" x1="1011" y1="644" x2="1022" y2="644"/>
				<line class="st10" x1="1011" y1="633" x2="1022" y2="633"/>
				<line class="st10" x1="1011" y1="628" x2="1022" y2="628"/>
				<line class="st10" x1="1011" y1="623" x2="1022" y2="623"/>
				<line class="st10" x1="1011" y1="659" x2="1022" y2="659"/>
				<line class="st10" x1="1011" y1="654" x2="1022" y2="654"/>
				<line class="st10" x1="1011" y1="649" x2="1022" y2="649"/>
				<line class="st10" x1="1011" y1="638" x2="1022" y2="638"/>
			</g>
			<g>
				<line class="st10" x1="940" y1="644" x2="951" y2="644"/>
				<line class="st10" x1="940" y1="633" x2="951" y2="633"/>
				<line class="st10" x1="940" y1="628" x2="951" y2="628"/>
				<line class="st10" x1="940" y1="623" x2="951" y2="623"/>
				<line class="st10" x1="940" y1="659" x2="951" y2="659"/>
				<line class="st10" x1="940" y1="654" x2="951" y2="654"/>
				<line class="st10" x1="940" y1="649" x2="951" y2="649"/>
				<line class="st10" x1="940" y1="638" x2="951" y2="638"/>
			</g>
		</g>
		<g>
			<g>
				<line class="st10" x1="1321" y1="418" x2="1321" y2="407"/>
				<line class="st10" x1="1310" y1="418" x2="1310" y2="407"/>
				<line class="st10" x1="1305" y1="418" x2="1305" y2="407"/>
				<line class="st10" x1="1300" y1="418" x2="1300" y2="407"/>
				<line class="st10" x1="1336" y1="418" x2="1336" y2="407"/>
				<line class="st10" x1="1331" y1="418" x2="1331" y2="407"/>
				<line class="st10" x1="1326" y1="418" x2="1326" y2="407"/>
				<line class="st10" x1="1315" y1="418" x2="1315" y2="407"/>
			</g>
			<g>
				<line class="st10" x1="1321" y1="489" x2="1321" y2="478"/>
				<line class="st10" x1="1310" y1="489" x2="1310" y2="478"/>
				<line class="st10" x1="1305" y1="489" x2="1305" y2="478"/>
				<line class="st10" x1="1300" y1="489" x2="1300" y2="478"/>
				<line class="st10" x1="1336" y1="489" x2="1336" y2="478"/>
				<line class="st10" x1="1331" y1="489" x2="1331" y2="478"/>
				<line class="st10" x1="1326" y1="489" x2="1326" y2="478"/>
				<line class="st10" x1="1315" y1="489" x2="1315" y2="478"/>
			</g>
			<g>
				<line class="st10" x1="1348" y1="453" x2="1359" y2="453"/>
				<line class="st10" x1="1348" y1="442" x2="1359" y2="442"/>
				<line class="st10" x1="1348" y1="437" x2="1359" y2="437"/>
				<line class="st10" x1="1348" y1="432" x2="1359" y2="432"/>
				<line class="st10" x1="1348" y1="468" x2="1359" y2="468"/>
				<line class="st10" x1="1348" y1="463" x2="1359" y2="463"/>
				<line class="st10" x1="1348" y1="458" x2="1359" y2="458"/>
				<line class="st10" x1="1348" y1="447" x2="1359" y2="447"/>
			</g>
			<g>
				<line class="st10" x1="1277" y1="453" x2="1288" y2="453"/>
				<line class="st10" x1="1277" y1="442" x2="1288" y2="442"/>
				<line class="st10" x1="1277" y1="437" x2="1288" y2="437"/>
				<line class="st10" x1="1277" y1="432" x2="1288" y2="432"/>
				<line class="st10" x1="1277" y1="468" x2="1288" y2="468"/>
				<line class="st10" x1="1277" y1="463" x2="1288" y2="463"/>
				<line class="st10" x1="1277" y1="458" x2="1288" y2="458"/>
				<line class="st10" x1="1277" y1="447" x2="1288" y2="447"/>
			</g>
		</g>
		<g>
			<g>
				<line class="st10" x1="311" y1="418" x2="311" y2="407"/>
				<line class="st10" x1="300" y1="418" x2="300" y2="407"/>
				<line class="st10" x1="295" y1="418" x2="295" y2="407"/>
				<line class="st10" x1="290" y1="418" x2="290" y2="407"/>
				<line class="st10" x1="326" y1="418" x2="326" y2="407"/>
				<line class="st10" x1="321" y1="418" x2="321" y2="407"/>
				<line class="st10" x1="316" y1="418" x2="316" y2="407"/>
				<line class="st10" x1="305" y1="418" x2="305" y2="407"/>
			</g>
			<g>
				<line class="st10" x1="311" y1="489" x2="311" y2="478"/>
				<line class="st10" x1="300" y1="489" x2="300" y2="478"/>
				<line class="st10" x1="295" y1="489" x2="295" y2="478"/>
				<line class="st10" x1="290" y1="489" x2="290" y2="478"/>
				<line class="st10" x1="326" y1="489" x2="326" y2="478"/>
				<line class="st10" x1="321" y1="489" x2="321" y2="478"/>
				<line class="st10" x1="316" y1="489" x2="316" y2="478"/>
				<line class="st10" x1="305" y1="489" x2="305" y2="478"/>
			</g>
			<g>
				<line class="st10" x1="338" y1="453" x2="349" y2="453"/>
				<line class="st10" x1="338" y1="442" x2="349" y2="442"/>
				<line class="st10" x1="338" y1="437" x2="349" y2="437"/>
				<line class="st10" x1="338" y1="432" x2="349" y2="432"/>
				<line class="st10" x1="338" y1="468" x2="349" y2="468"/>
				<line class="st10" x1="338" y1="463" x2="349" y2="463"/>
				<line class="st10" x1="338" y1="458" x2="349" y2="458"/>
				<line class="st10" x1="338" y1="447" x2="349" y2="447"/>
			</g>
			<g>
				<line class="st10" x1="267" y1="453" x2="278" y2="453"/>
				<line class="st10" x1="267" y1="442" x2="278" y2="442"/>
				<line class="st10" x1="267" y1="437" x2="278" y2="437"/>
				<line class="st10" x1="267" y1="432" x2="278" y2="432"/>
				<line class="st10" x1="267" y1="468" x2="278" y2="468"/>
				<line class="st10" x1="267" y1="463" x2="278" y2="463"/>
				<line class="st10" x1="267" y1="458" x2="278" y2="458"/>
				<line class="st10" x1="267" y1="447" x2="278" y2="447"/>
			</g>
		</g>
		<g>
			<g>
				<line class="st10" x1="1321" y1="807" x2="1321" y2="796"/>
				<line class="st10" x1="1310" y1="807" x2="1310" y2="796"/>
				<line class="st10" x1="1305" y1="807" x2="1305" y2="796"/>
				<line class="st10" x1="1300" y1="807" x2="1300" y2="796"/>
				<line class="st10" x1="1336" y1="807" x2="1336" y2="796"/>
				<line class="st10" x1="1331" y1="807" x2="1331" y2="796"/>
				<line class="st10" x1="1326" y1="807" x2="1326" y2="796"/>
				<line class="st10" x1="1315" y1="807" x2="1315" y2="796"/>
			</g>
			<g>
				<line class="st10" x1="1321" y1="878" x2="1321" y2="867"/>
				<line class="st10" x1="1310" y1="878" x2="1310" y2="867"/>
				<line class="st10" x1="1305" y1="878" x2="1305" y2="867"/>
				<line class="st10" x1="1300" y1="878" x2="1300" y2="867"/>
				<line class="st10" x1="1336" y1="878" x2="1336" y2="867"/>
				<line class="st10" x1="1331" y1="878" x2="1331" y2="867"/>
				<line class="st10" x1="1326" y1="878" x2="1326" y2="867"/>
				<line class="st10" x1="1315" y1="878" x2="1315" y2="867"/>
			</g>
			<g>
				<line class="st10" x1="1348" y1="842" x2="1359" y2="842"/>
				<line class="st10" x1="1348" y1="831" x2="1359" y2="831"/>
				<line class="st10" x1="1348" y1="826" x2="1359" y2="826"/>
				<line class="st10" x1="1348" y1="821" x2="1359" y2="821"/>
				<line class="st10" x1="1348" y1="857" x2="1359" y2="857"/>
				<line class="st10" x1="1348" y1="852" x2="1359" y2="852"/>
				<line class="st10" x1="1348" y1="847" x2="1359" y2="847"/>
				<line class="st10" x1="1348" y1="836" x2="1359" y2="836"/>
			</g>
			<g>
				<line class="st10" x1="1277" y1="842" x2="1288" y2="842"/>
				<line class="st10" x1="1277" y1="831" x2="1288" y2="831"/>
				<line class="st10" x1="1277" y1="826" x2="1288" y2="826"/>
				<line class="st10" x1="1277" y1="821" x2="1288" y2="821"/>
				<line class="st10" x1="1277" y1="857" x2="1288" y2="857"/>
				<line class="st10" x1="1277" y1="852" x2="1288" y2="852"/>
				<line class="st10" x1="1277" y1="847" x2="1288" y2="847"/>
				<line class="st10" x1="1277" y1="836" x2="1288" y2="836"/>
			</g>
		</g>
		<g>
			<g class="st11">
				<rect x="1356.6" y="292.8" class="st12" width="91" height="34.2"/>
				<g>
					<path class="st13" d="M1446.1,294.3v31.2h-88v-31.2H1446.1 M1449.1,291.3h-94v37.2h94V291.3L1449.1,291.3z"/>
				</g>
			</g>
			<g class="st11">
				<rect x="1454.8" y="292.8" class="st12" width="66.4" height="73.6"/>
				<g>
					<path class="st13" d="M1519.7,294.3v70.6h-63.4v-70.6H1519.7 M1522.7,291.3h-69.4v76.6h69.4V291.3L1522.7,291.3z"/>
				</g>
			</g>
			<g class="st11">
				<rect x="1356.6" y="334.2" class="st12" width="91" height="32.2"/>
				<g>
					<path class="st13" d="M1446.1,335.7v29.2h-88v-29.2H1446.1 M1449.1,332.7h-94v35.2h94V332.7L1449.1,332.7z"/>
				</g>
			</g>
			<g class="st11">
				<rect x="1356.6" y="373.6" class="st12" width="91" height="35.2"/>
				<g>
					<path class="st13" d="M1446.1,375.1v32.2h-88v-32.2H1446.1 M1449.1,372.1h-94v38.2h94V372.1L1449.1,372.1z"/>
				</g>
			</g>
			<g class="st11">
				<polygon class="st12" points="1454.8,408.8 1454.8,373.6 1528.6,373.6 1529,293 1617.4,293 1617.4,408.8 				"/>
				<g>
					<path class="st13" d="M1615.9,294.5v112.7h-159.6v-32.2h70.8h3l0-3l0.3-77.6H1615.9 M1618.9,291.5h-91.4l-0.3,80.6h-73.8v38.2
						h165.6V291.5L1618.9,291.5z"/>
				</g>
			</g>
			<rect x="1458.7" y="348.9" class="st13" width="7" height="12.7"/>
		</g>
		<g>
			<g class="st11">
				<rect x="852.3" y="764.1" class="st12" width="91" height="34.2"/>
				<g>
					<path class="st13" d="M941.8,765.6v31.2h-88v-31.2H941.8 M944.8,762.6h-94v37.2h94V762.6L944.8,762.6z"/>
				</g>
			</g>
			<g class="st11">
				<rect x="778.7" y="724.7" class="st12" width="66.4" height="73.6"/>
				<g>
					<path class="st13" d="M843.6,726.2v70.6h-63.4v-70.6H843.6 M846.6,723.2h-69.4v76.6h69.4V723.2L846.6,723.2z"/>
				</g>
			</g>
			<g class="st11">
				<rect x="852.3" y="724.7" class="st12" width="91" height="32.2"/>
				<g>
					<path class="st13" d="M941.8,726.2v29.2h-88v-29.2H941.8 M944.8,723.2h-94v35.2h94V723.2L944.8,723.2z"/>
				</g>
			</g>
			<g class="st11">
				<rect x="852.3" y="682.3" class="st12" width="91" height="35.2"/>
				<g>
					<path class="st13" d="M941.8,683.8v32.2h-88v-32.2H941.8 M944.8,680.8h-94v38.2h94V680.8L944.8,680.8z"/>
				</g>
			</g>
			<g class="st11">
				<polygon class="st12" points="682.5,798 682.5,682.3 845.1,682.3 845.1,717.4 771.3,717.4 770.9,798 				"/>
				<g>
					<path class="st13" d="M843.6,683.8v32.2h-70.8h-3l0,3l-0.3,77.6H684V683.8H843.6 M846.6,680.8H681v118.7h91.4l0.3-80.6h73.8
						V680.8L846.6,680.8z"/>
				</g>
			</g>
			<rect x="834.2" y="729.4" class="st13" width="7" height="12.7"/>
		</g>
		<g>
			<g class="st11">
				<rect x="1188" y="763.6" class="st12" width="91" height="34.2"/>
				<g>
					<path class="st13" d="M1277.5,765.1v31.2h-88v-31.2H1277.5 M1280.5,762.1h-94v37.2h94V762.1L1280.5,762.1z"/>
				</g>
			</g>
			<g class="st11">
				<rect x="1114.4" y="724.2" class="st12" width="66.4" height="73.6"/>
				<g>
					<path class="st13" d="M1179.3,725.7v70.6h-63.4v-70.6H1179.3 M1182.3,722.7h-69.4v76.6h69.4V722.7L1182.3,722.7z"/>
				</g>
			</g>
			<g class="st11">
				<rect x="1188" y="724.2" class="st12" width="91" height="32.2"/>
				<g>
					<path class="st13" d="M1277.5,725.7v29.2h-88v-29.2H1277.5 M1280.5,722.7h-94v35.2h94V722.7L1280.5,722.7z"/>
				</g>
			</g>
			<g class="st11">
				<rect x="1188" y="681.8" class="st12" width="91" height="35.2"/>
				<g>
					<path class="st13" d="M1277.5,683.3v32.2h-88v-32.2H1277.5 M1280.5,680.3h-94v38.2h94V680.3L1280.5,680.3z"/>
				</g>
			</g>
			<g class="st11">
				<rect x="1114.4" y="681.8" class="st12" width="66.4" height="35.2"/>
				<g>
					<path class="st13" d="M1179.3,683.3v32.2h-63.4v-32.2H1179.3 M1182.3,680.3h-69.4v38.2h69.4V680.3L1182.3,680.3z"/>
				</g>
			</g>
			<polygon class="st14" points="1108.5,718.4 1108.1,799 1016.7,799 1016.7,680.3 1108.5,680.3 			"/>
			<rect x="1169.9" y="728.9" class="st13" width="7" height="12.7"/>
		</g>
		<g>
			<g class="st11">
				<rect x="1018.2" y="487" class="st12" width="91" height="34.2"/>
				<g>
					<path class="st13" d="M1107.7,488.5v31.2h-88v-31.2H1107.7 M1110.7,485.5h-94v37.2h94V485.5L1110.7,485.5z"/>
				</g>
			</g>
			<g class="st11">
				<polygon class="st12" points="1116.4,603 1116.4,487 1189.1,487.3 1279,487.3 1279,603 				"/>
				<g>
					<path class="st13" d="M1117.9,488.5l71.2,0.2h88.4v112.7h-159.6v-35.2V488.5 M1114.9,485.5v80.8v38.2h165.6V485.8h-91.4
						L1114.9,485.5L1114.9,485.5z"/>
				</g>
			</g>
			<g class="st11">
				<rect x="1018.2" y="528.4" class="st12" width="91" height="74.6"/>
				<g>
					<path class="st13" d="M1107.7,529.9v71.6h-88v-71.6H1107.7 M1110.7,526.9h-94v77.6h94V526.9L1110.7,526.9z"/>
				</g>
			</g>
		</g>
		<g>
			<g class="st11">
				<rect x="1526.4" y="567.1" class="st12" width="91" height="34.2"/>
				<g>
					<path class="st13" d="M1615.9,568.6v31.2h-88v-31.2H1615.9 M1618.9,565.6h-94v37.2h94V565.6L1618.9,565.6z"/>
				</g>
			</g>
			<g class="st11">
				<polygon class="st12" points="1446.5,601 1356.6,601 1356.6,485.3 1519.2,485.3 1519.2,601.2 				"/>
				<g>
					<path class="st13" d="M1517.7,486.8v35.2v77.8l-71.2-0.2h-88.4V486.8H1517.7 M1520.7,483.8h-165.6v118.7h91.4l74.2,0.3v-80.8
						V483.8L1520.7,483.8z"/>
				</g>
			</g>
			<g class="st11">
				<rect x="1526.4" y="485.3" class="st12" width="91" height="74.6"/>
				<g>
					<path class="st13" d="M1615.9,486.8v71.6h-88v-71.6H1615.9 M1618.9,483.8h-94v77.6h94V483.8L1618.9,483.8z"/>
				</g>
			</g>
		</g>
		<g class="st11">
			<polygon class="st12" points="682.5,603 682.5,487 853.4,487.3 943.3,487.3 943.3,603 			"/>
			<g>
				<path class="st13" d="M684,488.5l169.4,0.3h88.4l0,112.7H684v-35.2V488.5 M681,485.5v80.8v38.2h263.8l0-118.7h-91.4L681,485.5
					L681,485.5z"/>
			</g>
		</g>
		<g class="st11">
			<polygon class="st12" points="1018.2,409.3 1018.2,293.3 1189.1,293.5 1279,293.5 1279,409.3 			"/>
			<g>
				<path class="st13" d="M1019.7,294.8l169.4,0.3h88.4v112.7h-257.8v-35.2V294.8 M1016.7,291.8v80.8v38.2h263.8V292h-91.4
					L1016.7,291.8L1016.7,291.8z"/>
			</g>
		</g>
		<g class="st15">
			<g>
				<rect x="988.6" y="508.8" class="st16" width="8.6" height="16.2"/>
				<rect x="989.6" y="523.2" class="st17" width="6.8" height="1"/>
				<rect x="989.6" y="509.5" class="st17" width="6.8" height="1"/>
			</g>
			<g>
				<rect x="1305.7" y="734" class="st16" width="8.6" height="16.2"/>
				<rect x="1306.7" y="748.4" class="st17" width="6.8" height="1"/>
				<rect x="1306.7" y="734.8" class="st17" width="6.8" height="1"/>
			</g>
			<g>
				<rect x="1326.7" y="496" class="st16" width="8.6" height="16.2"/>
				<rect x="1327.7" y="510.4" class="st17" width="6.8" height="1"/>
				<rect x="1327.7" y="496.8" class="st17" width="6.8" height="1"/>
			</g>
			<g>
				<rect x="1326.7" y="301.7" class="st16" width="8.6" height="16.2"/>
				<rect x="1327.7" y="316.1" class="st17" width="6.8" height="1"/>
				<rect x="1327.7" y="302.5" class="st17" width="6.8" height="1"/>
			</g>
			<g>
				<rect x="1457.6" y="647.9" class="st16" width="16.2" height="8.6"/>
				<rect x="1458.4" y="648.9" class="st17" width="1" height="6.8"/>
				<rect x="1472" y="648.9" class="st17" width="1" height="6.8"/>
			</g>
			<g>
				<rect x="1238.6" y="821.9" class="st16" width="16.2" height="8.6"/>
				<rect x="1239.3" y="822.9" class="st17" width="1" height="6.8"/>
				<rect x="1253" y="822.9" class="st17" width="1" height="6.8"/>
			</g>
			<g>
				<rect x="1119.2" y="628.9" class="st16" width="16.2" height="8.6"/>
				<rect x="1120" y="629.9" class="st17" width="1" height="6.8"/>
				<rect x="1133.6" y="629.9" class="st17" width="1" height="6.8"/>
			</g>
			<g>
				<rect x="1208" y="256.9" class="st16" width="16.2" height="8.6"/>
				<rect x="1208.8" y="257.9" class="st17" width="1" height="6.8"/>
				<rect x="1222.4" y="257.9" class="st17" width="1" height="6.8"/>
			</g>
			<g>
				<rect x="963.2" y="569.1" class="st16" width="10.4" height="26.7"/>
				<rect x="963.9" y="594" class="st17" width="9.1" height="1"/>
				<circle class="st17" cx="968.2" cy="590.4" r="0.8"/>
				<circle class="st17" cx="968.2" cy="582.4" r="0.3"/>
				<circle class="st17" cx="968.2" cy="585.4" r="0.3"/>
			</g>
			<g>
				<rect x="1326.2" y="686.1" class="st16" width="10.4" height="26.7"/>
				<rect x="1326.9" y="711" class="st17" width="9.1" height="1"/>
				<circle class="st17" cx="1331.2" cy="707.4" r="0.8"/>
				<circle class="st17" cx="1331.2" cy="699.4" r="0.3"/>
				<circle class="st17" cx="1331.2" cy="702.4" r="0.3"/>
			</g>
			<g>
				<rect x="1560" y="628.2" class="st16" width="26.7" height="10.4"/>
				<rect x="1560.8" y="629" class="st17" width="1" height="9.1"/>
				<circle class="st17" cx="1565.4" cy="633.2" r="0.8"/>
				<circle class="st17" cx="1573.4" cy="633.2" r="0.3"/>
				<circle class="st17" cx="1570.4" cy="633.2" r="0.3"/>
			</g>
			<g>
				<rect x="1233" y="453.2" class="st16" width="26.7" height="10.4"/>
				<rect x="1233.8" y="454" class="st17" width="1" height="9.1"/>
				<circle class="st17" cx="1238.4" cy="458.2" r="0.8"/>
				<circle class="st17" cx="1246.4" cy="458.2" r="0.3"/>
				<circle class="st17" cx="1243.4" cy="458.2" r="0.3"/>
			</g>
		</g>
	</g>
</g>
</svg>
